name D:\school\WTK\thesis\model\3dpredictsim\Results\Batchsim_tmt_linear_v2\Pog_s1_tmt_bCst_d05_k1000_ig24_pas.mot
datacolumns 128
datarows 4
range 1.61191529 1.64415360
endheader
time	pelvis_tilt	pelvis_list	pelvis_rotation	pelvis_tx	pelvis_ty	pelvis_tz	hip_flexion_l	hip_adduction_l	hip_rotation_l	hip_flexion_r	hip_adduction_r	hip_rotation_r	knee_angle_l	knee_angle_r	ankle_angle_l	ankle_angle_r	subtalar_angle_l	subtalar_angle_r	tmt_angle_l	tmt_angle_r	mtp_angle_l	mtp_angle_r	lumbar_extension	lumbar_bending	lumbar_rotation	arm_flex_l	arm_add_l	arm_rot_l	arm_flex_r	arm_add_r	arm_rot_r	elbow_flex_l	elbow_flex_r	pro_sup_l	pro_sup_r	glut_med1_l/activation	glut_med2_l/activation	glut_med3_l/activation	glut_min1_l/activation	glut_min2_l/activation	glut_min3_l/activation	semimem_l/activation	semiten_l/activation	bifemlh_l/activation	bifemsh_l/activation	sar_l/activation	add_long_l/activation	add_brev_l/activation	add_mag1_l/activation	add_mag2_l/activation	add_mag3_l/activation	tfl_l/activation	pect_l/activation	grac_l/activation	glut_max1_l/activation	glut_max2_l/activation	glut_max3_l/activation	iliacus_l/activation	psoas_l/activation	quad_fem_l/activation	gem_l/activation	peri_l/activation	rect_fem_l/activation	vas_med_l/activation	vas_int_l/activation	vas_lat_l/activation	med_gas_l/activation	lat_gas_l/activation	soleus_l/activation	tib_post_l/activation	flex_dig_l/activation	flex_hal_l/activation	tib_ant_l/activation	per_brev_l/activation	per_long_l/activation	per_tert_l/activation	ext_dig_l/activation	ext_hal_l/activation	ercspn_l/activation	intobl_l/activation	extobl_l/activation	glut_med1_r/activation	glut_med2_r/activation	glut_med3_r/activation	glut_min1_r/activation	glut_min2_r/activation	glut_min3_r/activation	semimem_r/activation	semiten_r/activation	bifemlh_r/activation	bifemsh_r/activation	sar_r/activation	add_long_r/activation	add_brev_r/activation	add_mag1_r/activation	add_mag2_r/activation	add_mag3_r/activation	tfl_r/activation	pect_r/activation	grac_r/activation	glut_max1_r/activation	glut_max2_r/activation	glut_max3_r/activation	iliacus_r/activation	psoas_r/activation	quad_fem_r/activation	gem_r/activation	peri_r/activation	rect_fem_r/activation	vas_med_r/activation	vas_int_r/activation	vas_lat_r/activation	med_gas_r/activation	lat_gas_r/activation	soleus_r/activation	tib_post_r/activation	flex_dig_r/activation	flex_hal_r/activation	tib_ant_r/activation	per_brev_r/activation	per_long_r/activation	per_tert_r/activation	ext_dig_r/activation	ext_hal_r/activation	ercspn_r/activation	intobl_r/activation	extobl_r/activation	
          1.61191529	         -2.91344695	         -0.87967347	         -5.03733554	          2.01489412	          0.87198194	          0.00221661	         25.82912140	         -0.17077585	         -3.17144416	        -18.18348656	          1.24480307	          5.70252169	         -6.87019270	         -5.81425952	          5.55153088	        -10.20679309	          2.94663669	          6.58809388	          0.03357615	          1.06917679	         -0.10225314	         28.30742084	          0.72023409	          3.11050851	          1.64434100	         -9.80598217	        -13.45077008	         10.68719769	          2.99973463	        -13.47928448	         10.78253458	         18.18561278	         27.39642582	         86.51662706	         86.51662706	          0.14200539	          0.05000118	          0.10900198	          0.05000101	          0.05000097	          0.05000575	          0.05895521	          0.05895541	          0.12224146	          0.05000054	          0.05000236	          0.05895572	          0.11132834	          0.09303393	          0.16801239	          0.15983002	          0.05000126	          0.05027454	          0.05895217	          0.05791002	          0.12851125	          0.16927093	          0.05000051	          0.05000037	          0.14899245	          0.05000128	          0.05314404	          0.05244816	          0.12419608	          0.13338370	          0.10168922	          0.05295038	          0.05000133	          0.05895506	          0.05000013	          0.05895491	          0.05895494	          0.53054467	          0.31867826	          0.18183604	          0.39847127	          0.51869865	          0.34875966	          0.05000025	          0.13436219	          0.13288027	          0.24473099	          0.08196459	          0.07513703	          0.22758791	          0.14218836	          0.08196668	          0.05000125	          0.05000026	          0.05000024	          0.05000030	          0.09645911	          0.10640356	          0.05000102	          0.05000113	          0.05000277	          0.05000122	          0.20937427	          0.06057985	          0.05000172	          0.05000809	          0.05000423	          0.05000324	          0.34985496	          0.65411985	          0.05696026	          0.05000434	          0.05704397	          0.27048084	          0.12274733	          0.14313240	          0.05247184	          0.17475156	          0.25870864	          0.20882771	          0.21068495	          0.18248781	          0.25543739	          0.05000003	          0.08429980	          0.14220942	          0.05000021	          0.05000007	          0.05000023	          0.05000001	          0.05000006	          0.05000008	
          1.62266140	         -2.89380128	         -0.93444945	         -5.18066865	          2.03181976	          0.87052639	          0.00207515	         25.34824465	         -0.03070236	         -2.94336512	        -17.99329259	          1.10439052	          5.46962128	         -6.98960637	         -7.95565560	          4.95325047	        -10.89142071	          2.46801866	          7.66744553	          0.05396975	          0.97139399	         -0.08797969	         29.02879487	          0.94230230	          2.92944966	          1.70012504	        -10.98047713	        -13.44992884	         10.52263324	          2.75515915	        -13.50934680	         11.06097830	         18.19837730	         28.23104723	         86.51662706	         86.51662706	          0.12043543	          0.07366286	          0.20034672	          0.05895148	          0.05029838	          0.05000177	          0.05000016	          0.05000043	          0.10367347	          0.05000014	          0.05000052	          0.05000133	          0.09441838	          0.22874635	          0.23856755	          0.17145437	          0.05000047	          0.05000139	          0.05000053	          0.05895539	          0.16554439	          0.20708138	          0.05000011	          0.05000020	          0.17295521	          0.06963128	          0.12536902	          0.06951413	          0.22441979	          0.24467234	          0.18145803	          0.05000000	          0.05000001	          0.05000000	          0.05000003	          0.05000029	          0.05000015	          0.61262174	          0.31873656	          0.17771125	          0.58191357	          0.56627854	          0.34187175	          0.05000003	          0.11395302	          0.11269620	          0.20755726	          0.06951447	          0.06372405	          0.19301824	          0.12059048	          0.06951628	          0.05000176	          0.05000022	          0.05000022	          0.05000029	          0.08180790	          0.16948386	          0.15381592	          0.07021594	          0.05000459	          0.05000079	          0.17757111	          0.10128452	          0.05001227	          0.05000158	          0.05000115	          0.05000125	          0.29671319	          0.57696572	          0.05000205	          0.05895565	          0.05895514	          0.22939570	          0.15841849	          0.15842502	          0.15842330	          0.14820738	          0.21941168	          0.17710753	          0.17868280	          0.15476896	          0.21663761	          0.05000003	          0.07149524	          0.13929388	          0.05000021	          0.05000006	          0.05000022	          0.05763752	          0.06951402	          0.05000043	
          1.63340750	         -2.86762822	         -0.97151720	         -5.30027501	          2.04896049	          0.86897180	          0.00194131	         24.79103860	          0.08146965	         -2.67080922	        -17.70489182	          0.95292448	          5.23358503	         -7.76303208	        -10.27922729	          4.22163229	        -11.54382507	          1.97396110	          8.73552607	         -0.03601546	          0.83249398	         -0.12830076	         29.27541693	          1.17950016	          2.71723218	          1.74591305	        -12.15294990	        -13.45837666	         10.41712677	          2.45480395	        -13.54318377	         11.30824477	         18.20011232	         29.05279353	         86.51662706	         86.51662706	          0.26821393	          0.21746466	          0.32271164	          0.05000043	          0.05000039	          0.05000058	          0.06736713	          0.05000027	          0.09834289	          0.05000019	          0.05000283	          0.06951401	          0.08196497	          0.19400072	          0.20233063	          0.18093369	          0.05000085	          0.06951162	          0.05000803	          0.05000047	          0.17205010	          0.19226490	          0.05015385	          0.05000086	          0.14668400	          0.05905476	          0.15657580	          0.05895518	          0.19033123	          0.20750748	          0.15389521	          0.05895552	          0.05895619	          0.05895516	          0.05377905	          0.05895519	          0.05895518	          0.51956652	          0.33889047	          0.17689003	          0.49352286	          0.52796071	          0.28994261	          0.05000006	          0.09664394	          0.09557802	          0.19877514	          0.05895548	          0.05404476	          0.16369962	          0.10227325	          0.05895704	          0.05000172	          0.05000037	          0.05000053	          0.05000011	          0.06938191	          0.17672533	          0.31187298	          0.08635448	          0.05895328	          0.10094128	          0.15059872	          0.08590068	          0.05000179	          0.05008085	          0.05035413	          0.05895185	          0.25164346	          0.51383789	          0.05895474	          0.05000186	          0.05000020	          0.19455126	          0.13435563	          0.13436108	          0.13435957	          0.12569517	          0.18608379	          0.15020549	          0.15154153	          0.13126026	          0.18373122	          0.05000010	          0.07207893	          0.14601782	          0.05000020	          0.10569078	          0.05000045	          0.05446582	          0.05895511	          0.05895517	
          1.64415360	         -2.83819636	         -0.99345692	         -5.39354248	          2.06609893	          0.86731405	          0.00180622	         24.14032118	          0.19066028	         -2.38018579	        -17.31077695	          0.80015787	          4.99444286	         -8.64150088	        -12.77364977	          3.75336615	        -12.06928371	          1.44534342	          9.74891347	         -0.01147533	          0.65378299	         -0.16573585	         28.82167852	          1.41143820	          2.47889593	          1.78179517	        -13.27723627	        -13.47748905	         10.39724410	          2.13425434	        -13.58216819	         11.53943796	         18.16431909	         29.84978766	         86.51662706	         86.51662706	          0.32420928	          0.34174842	          0.43443357	          0.20625858	          0.19915472	          0.31330453	          0.06283787	          0.09019827	          0.08340505	          0.06951477	          0.05000146	          0.05895518	          0.06951484	          0.16453282	          0.17293606	          0.19449181	          0.05000032	          0.05895369	          0.07589157	          0.23608850	          0.22089045	          0.21799926	          0.05000025	          0.05000023	          0.12440330	          0.05008507	          0.23619071	          0.05000010	          0.16142060	          0.17598784	          0.13051909	          0.05000038	          0.05000096	          0.05000007	          0.05000001	          0.05000022	          0.05000017	          0.65621120	          0.28741424	          0.15002107	          0.69248117	          0.61566158	          0.43577267	          0.05000015	          0.08196405	          0.08106004	          0.16858197	          0.05000037	          0.05000002	          0.13883517	          0.08673835	          0.05000172	          0.05001197	          0.05000042	          0.05000033	          0.05000036	          0.05886422	          0.20230253	          0.27282919	          0.07323832	          0.05000237	          0.08560937	          0.12772338	          0.07285369	          0.05000072	          0.05000063	          0.05000041	          0.05000043	          0.21341968	          0.46182641	          0.05000006	          0.05000025	          0.05000015	          0.16499957	          0.11394754	          0.11395216	          0.11395087	          0.10660249	          0.15781830	          0.12738978	          0.12852300	          0.11132248	          0.15582330	          0.06965051	          0.09664569	          0.12383827	          0.09664494	          0.18663006	          0.05020757	          0.08336056	          0.05000004	          0.05000013	
